<?xml version="1.0" standalone="no"?><!DOCTYPE svg PUBLIC "-//W3C//DTD SVG 1.1//EN" "http://www.w3.org/Graphics/SVG/1.1/DTD/svg11.dtd"><svg t="1581567873001" class="icon" viewBox="0 0 1024 1024" version="1.1" xmlns="http://www.w3.org/2000/svg" p-id="13658" xmlns:xlink="http://www.w3.org/1999/xlink" width="64" height="64"><defs><style type="text/css"></style></defs><path d="M321.37591467 829.87463111c17.54851555 0 31.74627555-14.19889778 31.74627555-31.74627556V448.91999801c0-17.54737778-14.19889778-31.74627555-31.74627555-31.74627556-17.54737778 0-31.74627555 14.20003555-31.74627556 31.74627556v349.20959545C289.62963911 815.67698489 303.82853689 829.87463111 321.37591467 829.87463111zM511.85436445 829.87463111c17.54851555 0 31.74627555-14.19889778 31.74627555-31.74627556V448.91999801c0-17.54737778-14.19889778-31.74627555-31.74627555-31.74627556s-31.74627555 14.20003555-31.74627556 31.74627556v349.20959545C480.10695111 815.67698489 494.30584889 829.87463111 511.85436445 829.87463111zM702.33167645 829.87463111c17.54851555 0 31.74627555-14.19889778 31.74627555-31.74627556V448.91999801c0-17.54737778-14.19889778-31.74627555-31.74627555-31.74627556s-31.74627555 14.20003555-31.74627556 31.74627556v349.20959545C670.58551467 815.67698489 684.78316089 829.87463111 702.33167645 829.87463111zM861.06282667 99.71040711H729.58185017c-14.19889778-54.62619022-63.49243733-95.23871289-122.48996978-95.23871289H416.61453653c-58.99753245 0-108.291072 40.61252267-122.48996978 95.23871289H162.64476899c-70.03318045 0-126.98487467 56.98309689-126.98487466 126.98487467v31.74738603h31.74622094v31.74622094h63.49244188v603.17936298c0 70.00291555 56.95169422 126.98487467 126.98487467 126.98487467h507.94070016c70.03556978 0 126.98487467-56.98195911 126.98487467-126.98487467V290.18772821h63.49244188v-31.74622094h31.74622094v-31.74738602C988.04770133 156.69236622 931.09839645 99.71040711 861.06282667 99.71040711zM416.61451378 67.96413155h190.47732565c23.37507555 0 43.651072 12.86599111 54.65759289 31.74627556H361.95809507C372.96469333 80.83023645 393.23943822 67.96413155 416.61451378 67.96413155zM829.31655111 893.36706845c0 35.03172267-28.48984178 63.49243733-63.49243733 63.49243733H257.88343182c-35.00145778 0-67.89415822-28.46071467-67.89415822-63.49243733l4.40172089-603.17934934h634.92558393V893.3670912zM99.15118933 226.69528178c0-35.03172267 28.49211733-63.49243733 63.49243734-63.49243733H861.06279481c35.00384711 0 63.49243733 28.46071467 63.49243733 63.49243733H99.15116203z" p-id="13659"></path></svg>