<?xml version="1.0" standalone="no"?><!DOCTYPE svg PUBLIC "-//W3C//DTD SVG 1.1//EN" "http://www.w3.org/Graphics/SVG/1.1/DTD/svg11.dtd"><svg t="1581567755118" class="icon" viewBox="0 0 1024 1024" version="1.1" xmlns="http://www.w3.org/2000/svg" p-id="15636" width="64" height="64" xmlns:xlink="http://www.w3.org/1999/xlink"><defs><style type="text/css"></style></defs><path d="M198.322881 1010.595712c-91.302449 0-165.583223-74.281797-165.583223-165.584246L32.739659 254.587326c0-91.302449 74.280774-165.583223 165.583223-165.583223l296.105928 0 0 69.913303L198.322881 158.917406c-52.748365 0-95.66378 42.918485-95.66378 95.670943l0 590.42414c0 52.750411 42.915415 95.664803 95.66378 95.664803L788.748045 940.677293c52.753481 0 95.670943-42.914392 95.670943-95.664803L884.418988 565.197596l69.920466 0 0 279.814894c-0.00614 91.304496-74.28896 165.584246-165.590386 165.584246L198.322881 1010.596735zM341.710592 467.050252 762.703879 46.043662c21.057595-21.049409 49.055253-32.640398 78.834486-32.640398 29.777187 0 57.776891 11.590989 78.837556 32.639375l38.299281 38.300304c43.447535 43.460838 43.447535 114.175389 0 157.63418L537.65224 662.983713 223.537146 779.939425 341.710592 467.050252zM327.260485 676.17413l177.202864-65.975621 7.614421-7.619538L401.61289 492.098741l-7.734148 7.730055L327.260485 676.17413zM554.808992 559.852868l282.040584-282.059004L726.356043 167.32489 444.341041 449.371614 554.808992 559.852868zM879.56954 235.072877l36.592406-36.573987c19.884886-19.901259 19.884886-52.28583-0.002047-72.188112l-38.297234-38.291095c-9.620102-9.622148-22.439058-14.920828-36.093033-14.920828-13.651928 0-26.464745 5.298679-36.075637 14.919804l-36.588313 36.586267L879.56954 235.072877z" p-id="15637"></path></svg>