<?xml version="1.0" standalone="no"?><!DOCTYPE svg PUBLIC "-//W3C//DTD SVG 1.1//EN" "http://www.w3.org/Graphics/SVG/1.1/DTD/svg11.dtd"><svg t="1581567659905" class="icon" viewBox="0 0 1024 1024" version="1.1" xmlns="http://www.w3.org/2000/svg" p-id="15500" xmlns:xlink="http://www.w3.org/1999/xlink" width="64" height="64"><defs><style type="text/css"></style></defs><path d="M471.936296 961.476017h-298.073846c-44.084871 0-80.279553-36.06944-80.279553-80.279552V141.89818c0-44.084871 36.06944-80.279553 80.279553-80.279553h675.300076c44.084871 0 80.279553 36.06944 80.279553 80.279553v452.245656c0 15.78038 12.774593 28.680215 28.680215 28.680214 15.78038 0 28.680215-12.774593 28.680214-28.680214V139.769081C986.802508 62.871038 923.93147 0 847.033427 0H176.242031C99.343988 0 36.47295 62.871038 36.47295 139.769081v743.681724C36.47295 960.348847 99.343988 1023.219886 176.242031 1023.219886h295.819507c15.78038 0 28.680215-12.774593 28.680214-28.680215v-4.258198c-0.125241-15.905621-12.899835-28.805456-28.805456-28.805456z" p-id="15501"></path><path d="M713.150678 301.204875H313.005325c-17.158032 0-31.310278-14.152246-31.310278-31.310278v-1.502894c0-17.158032 14.152246-31.310278 31.310278-31.310278h400.020112c17.158032 0 31.310278 14.152246 31.310278 31.310278v1.502894c0 17.283273-14.027005 31.310278-31.185037 31.310278z m0 241.464864H313.005325c-17.158032 0-31.310278-14.152246-31.310278-31.310278v-1.502894c0-17.158032 14.152246-31.310278 31.310278-31.310278h400.020112c17.158032 0 31.310278 14.152246 31.310278 31.310278v1.502894c0 17.283273-14.027005 31.310278-31.185037 31.310278z m-242.967757 241.464864H313.005325c-17.158032 0-31.310278-14.152246-31.310278-31.310278v-1.502894c0-17.158032 14.152246-31.310278 31.310278-31.310278h157.177596c17.158032 0 31.310278 14.152246 31.310278 31.310278v1.502894c-0.125241 17.158032-14.152246 31.310278-31.310278 31.310278z m231.195093 231.946539l-88.545466-79.402865c-12.774593-11.396941-13.776522-31.310278-2.379582-44.210112l1.001929-1.12717c11.396941-12.774593 31.310278-13.776522 44.210113-2.379582l88.545466 79.402866c12.774593 11.396941 13.776522 31.310278 2.379581 44.210112l-1.001929 1.12717c-11.396941 12.774593-31.310278 13.776522-44.210112 2.379581z" p-id="15502"></path><path d="M699.499397 969.992413L921.67713 735.165328c11.772665-12.524111 31.811242-13.025076 44.210113-1.252411l1.12717 1.001929c12.524111 11.772665 13.025076 31.811242 1.252411 44.210112L746.089091 1013.952043c-11.772665 12.524111-31.811242 13.025076-44.210113 1.252411l-1.12717-1.001928c-12.524111-11.772665-13.025076-31.686001-1.252411-44.210113z" p-id="15503"></path></svg>