<?xml version="1.0" standalone="no"?><!DOCTYPE svg PUBLIC "-//W3C//DTD SVG 1.1//EN" "http://www.w3.org/Graphics/SVG/1.1/DTD/svg11.dtd"><svg t="1581567817438" class="icon" viewBox="0 0 1024 1024" version="1.1" xmlns="http://www.w3.org/2000/svg" p-id="16523" xmlns:xlink="http://www.w3.org/1999/xlink" width="64" height="64"><defs><style type="text/css"></style></defs><path d="M867.5 314v553.7H313.8V314h553.7m0-59.3H313.8c-32.8 0-59.3 26.6-59.3 59.3v553.7c0 32.8 26.6 59.3 59.3 59.3h553.7c15.7 0 30.8-6.2 41.9-17.4 11.1-11.1 17.4-26.2 17.4-42V314c0-32.8-26.5-59.3-59.3-59.3z m0 0" fill="" p-id="16524"></path><path d="M214.9 768.8h-29.7c-49.1 0-89-39.8-89-89V185.5c0-49.1 39.8-89 89-89h494.4c49.1 0 89 39.8 89 89v29.7c0 16.4-13.3 29.7-29.7 29.7s-29.7-13.3-29.7-29.7v-29.7c0-7.9-3.1-15.4-8.7-21s-13.1-8.7-21-8.7H185.2c-16.4 0-29.7 13.3-29.7 29.7v494.4c0 7.9 3.1 15.4 8.7 21s13.1 8.7 21 8.7h29.7c16.4 0 29.7 13.3 29.7 29.7 0 16.3-13.3 29.5-29.7 29.5z m0 0" fill="" p-id="16525"></path><path d="M635.7 733.3h-62.3V498.7c-23 21.4-50.4 37.6-80.3 47.3v-56.6c19.3-7 37.2-17.2 53-30.3a115.2 115.2 0 0 0 39.6-52h50.4l-0.4 326.2z m0 0" fill="" p-id="16526"></path></svg>