<?xml version="1.0" standalone="no"?><!DOCTYPE svg PUBLIC "-//W3C//DTD SVG 1.1//EN" "http://www.w3.org/Graphics/SVG/1.1/DTD/svg11.dtd"><svg t="1581568357463" class="icon" viewBox="0 0 1024 1024" version="1.1" xmlns="http://www.w3.org/2000/svg" p-id="14418" xmlns:xlink="http://www.w3.org/1999/xlink" width="64" height="64"><defs><style type="text/css"></style></defs><path d="M811.008 648.704l-21.504 3.072v49.152h-30.72v78.336h-66.56v-78.336H660.48v-39.424l-27.136 2.048c-84.48 6.144-169.472 6.144-252.928 0l-27.136-2.048v39.424h-28.672v78.336H258.56v-78.336H225.28v-49.152l-20.992-3.584c-46.592-7.68-93.184-16.384-138.24-27.136l-30.72-7.168v323.584c0 47.616 38.4 86.528 86.016 86.528h782.848c47.104 0 86.016-38.912 86.016-86.528v-324.096l-30.72 6.656c-53.76 12.288-102.4 21.504-148.48 28.672z m128 288.768c0 19.456-15.872 35.84-35.328 35.84h-783.36c-19.456 0-35.328-15.872-35.328-35.84v-260.608c29.696 6.144 59.392 12.288 89.6 17.408v56.832h33.28V829.44h166.4v-78.336h28.672v-35.84c68.096 4.096 137.728 4.096 206.336 0v35.84h31.744V829.44H808.96v-78.336h30.72v-55.808c31.744-5.12 64.512-11.264 99.328-18.944v261.12zM454.656 132.096h121.856v85.504h159.744V100.864C736.256 45.568 691.2 0 635.904 0H388.096C332.8 0 287.744 45.568 287.744 100.864v116.224h166.912V132.096zM404.48 166.912H337.92V100.864c0-27.648 22.528-50.688 50.176-50.688h247.808c27.648 0 50.176 22.528 50.176 50.688v65.536h-59.392V81.408H404.48v85.504zM23.04 253.44v298.496l18.432 5.12c152.064 40.96 307.712 61.44 464.384 61.44 157.184 0 315.904-20.48 475.136-61.44l18.944-5.12V253.44H23.04z m927.232 259.072c-297.984 73.216-592.384 73.728-877.056 0V303.616h877.056v208.896z" p-id="14419"></path></svg>